<svg xmlns="http://www.w3.org/2000/svg" xml:space="preserve" viewBox="0 0 583.479 583.479">
  <path d="M46.01 563.595c.792 7.812 7.37 13.758 15.222 13.758h461.014c7.853 0 14.431-5.943 15.222-13.758l2.511-24.762L582.91 87.565c.405-4.255-.988-8.484-3.842-11.666l-58.03-64.689c-2.901-3.235-7.043-5.083-11.389-5.083H73.829c-4.346 0-8.487 1.848-11.389 5.083L4.41 75.899C1.557 79.08.164 83.31.568 87.565L43.5 538.833l2.51 24.762zM81.562 46.706c2.902-3.235 7.043-5.083 11.389-5.083h397.576c4.347 0 8.487 1.849 11.39 5.083l33.035 36.827H48.525l33.037-36.827zm210.177 80.689h243.214L498.64 520.62c-.727 7.871-7.33 13.893-15.235 13.893H100.074c-7.905 0-14.509-6.021-15.235-13.893L48.526 127.395h243.213z"/>
  <path d="M522.246 577.853H61.232c-8.141 0-14.898-6.107-15.72-14.207l-2.51-24.762L.07 87.612c-.417-4.381 1.03-8.772 3.968-12.047l58.03-64.689c2.993-3.336 7.279-5.25 11.761-5.25h435.82c4.482 0 8.77 1.914 11.761 5.25l58.03 64.689c2.938 3.276 4.385 7.667 3.968 12.047l-42.932 451.269-2.512 24.765c-.818 8.099-7.576 14.207-15.718 14.207zM73.829 6.626c-4.198 0-8.213 1.792-11.017 4.917l-58.03 64.69C2.03 79.301.676 83.414 1.065 87.518l42.932 451.268 2.51 24.759c.769 7.587 7.099 13.309 14.725 13.309h461.014c7.626 0 13.956-5.722 14.725-13.309l2.511-24.762 42.931-451.265c.391-4.103-.964-8.216-3.716-11.285l-58.03-64.689c-2.803-3.125-6.818-4.917-11.017-4.917H73.829zm409.575 528.387h-383.33c-8.215 0-14.978-6.168-15.733-14.347L47.978 126.895h487.523l-.05.546-36.313 393.225c-.755 8.179-7.519 14.347-15.734 14.347zM49.075 127.895l36.263 392.679c.707 7.661 7.042 13.438 14.737 13.438h383.33c7.694 0 14.03-5.777 14.737-13.438l36.264-392.679H49.075zm486.997-43.862H47.405L81.19 46.372c2.993-3.336 7.279-5.25 11.761-5.25h397.576c4.481 0 8.769 1.914 11.762 5.25l33.783 37.661zm-486.426-1h484.187L501.545 47.04c-2.804-3.125-6.819-4.917-11.018-4.917H92.951c-4.198 0-8.213 1.792-11.017 4.917L49.646 83.033z"/>
  <g>
    <path d="M291.739 377.952c35.8 0 69.457-13.941 94.771-39.256 25.315-25.314 39.257-58.971 39.257-94.772 0-11.83-9.591-21.42-21.42-21.42-11.83 0-21.421 9.59-21.421 21.42 0 50.282-40.906 91.188-91.188 91.188s-91.188-40.906-91.188-91.188c0-11.83-9.59-21.42-21.42-21.42s-21.42 9.59-21.42 21.42c0 35.8 13.941 69.458 39.256 94.772 25.316 25.315 58.973 39.256 94.773 39.256z"/>
    <path d="M291.739 378.452c-35.933 0-69.716-13.993-95.125-39.402-25.409-25.409-39.402-59.192-39.402-95.125 0-12.087 9.833-21.92 21.92-21.92 12.087 0 21.92 9.833 21.92 21.92 0 50.005 40.683 90.688 90.688 90.688s90.688-40.683 90.688-90.688c0-12.087 9.834-21.92 21.921-21.92s21.92 9.833 21.92 21.92c0 35.934-13.994 69.717-39.403 95.125-25.411 25.409-59.193 39.402-95.127 39.402zM179.131 223.004c-11.535 0-20.92 9.385-20.92 20.92 0 35.667 13.889 69.199 39.109 94.418 25.221 25.22 58.752 39.109 94.418 39.109s69.198-13.89 94.418-39.109c25.221-25.22 39.11-58.751 39.11-94.418 0-11.535-9.385-20.92-20.92-20.92-11.536 0-20.921 9.385-20.921 20.92 0 50.557-41.131 91.688-91.688 91.688s-91.688-41.131-91.688-91.688c.002-11.535-9.382-20.92-20.918-20.92z"/>
  </g>
</svg>